# xmcd
#
# Track frame offsets: 
#        150
#        11813
#        21972
#        33943
#        46058
#        55083
#        66026
#        75334
#        89328
#        99828
#        117192
#        126255
#        139002
#        151313
#        162832
#        175313
#        189152
#        203875
#        215588
#        228203
#        239559
#        245201
#        262007
#        277116
#        289549
#        303276
#        315609
#
# Disc length: 4423 seconds
#
# Revision: 0
# Processed by: cddbd v1.5.1PL2 Copyright (c) Steve Scherf et al.
# Submitted via: ExactAudioCopy v0.95b3
#
DISCID=7211451b
DTITLE=Various Artist - Fonotone Records Box [Disc 2]
DYEAR=2006
DGENRE=Bluegrass
TTITLE0=Bill Hoffman and Joe Bussard - Crazy Arms
TTITLE1=Lucky Chatman's Ozark Mountain Boys - Bluegrass
TTITLE2=Georgia Jokers - Rome Georgia Bound
TTITLE3=Blind Thomas - Blind Blues
TTITLE4=Bluegrass Travelers - Bluegrass Shuffle
TTITLE5=Jolly Joe's Jug Band - Cider Time Rag
TTITLE6=Happy Johnny and Family - Sugar Babe
TTITLE7=Welch Brothers - Tearing Down the Laurel
TTITLE8=Possum Holler Boys - Up Jumped the Devil
TTITLE9=Clarence Fross - Fox Chase
TTITLE10=Virginia Ramblers - Virginia Ramble
TTITLE11=Joe Bussard - Sow Good Seeds
TTITLE12=Beachley Sisters - Nobody's Darling but Mine
TTITLE13=Brother Smith and Brother Amos - Everlasting Joy
TTITLE14=The Backlanders - Backlander's Hornpipe
TTITLE15=Georgia Jokers - Jokin' Georgia Rag
TTITLE16=Jackson Jug Jumpers - Stir It Now
TTITLE17=Kid Future - Kid Future's Blues
TTITLE18=Rocky Ridge Ramblers - R.G. Chimes
TTITLE19=Jolly Joe's Jug Band - Back Alley Wiggle
TTITLE20=Possum Holler Boys - Pig Tail Fling
TTITLE21=Rocky Ridge Ramblers - Down Where the River Bends
TTITLE22=Joe Bussard and Oscar Myers - The Flight of Astronaut John Gl
TTITLE22=enn
TTITLE23=Hillbilly Boys - Hillbilly's Guitar
TTITLE24=Jolly Joe's Jug Band - Memphis Hambone Blues
TTITLE25=Tennessee Mess Arounders - Mandolin Blues
TTITLE26=Welch Brothers - Cheat Mountain
EXTD=
EXTT0=
EXTT1=
EXTT2=
EXTT3=
EXTT4=
EXTT5=
EXTT6=
EXTT7=
EXTT8=
EXTT9=
EXTT10=
EXTT11=
EXTT12=
EXTT13=
EXTT14=
EXTT15=
EXTT16=
EXTT17=
EXTT18=
EXTT19=
EXTT20=
EXTT21=
EXTT22=
EXTT23=
EXTT24=
EXTT25=
EXTT26=
PLAYORDER=
